<mxfile host="Electron" agent="Mozilla/5.0 (Windows NT 10.0; Win64; x64) AppleWebKit/537.36 (KHTML, like Gecko) draw.io/24.7.5 Chrome/126.0.6478.183 Electron/31.3.0 Safari/537.36" version="24.7.5">
  <diagram name="Use Case Diagram" id="hXlyRdMplNYK5tqQyUxJ">
    <mxGraphModel dx="1265" dy="731" grid="1" gridSize="10" guides="1" tooltips="1" connect="1" arrows="1" fold="1" page="1" pageScale="1" pageWidth="1654" pageHeight="1169" math="0" shadow="0">
      <root>
        <mxCell id="0" />
        <mxCell id="1" parent="0" />
        <mxCell id="Rg7UJvtkrew1N0ZOOflh-1" value="Notebook Application" style="shape=umlFrame;whiteSpace=wrap;html=1;pointerEvents=0;recursiveResize=0;container=1;collapsible=0;width=160;" parent="1" vertex="1">
          <mxGeometry x="260" y="300" width="880" height="600" as="geometry" />
        </mxCell>
        <mxCell id="jy5e4RI17ieAFypie_pl-2" value="" style="shape=ellipse;container=1;horizontal=1;horizontalStack=0;resizeParent=1;resizeParentMax=0;resizeLast=0;html=1;dashed=0;collapsible=0;" parent="Rg7UJvtkrew1N0ZOOflh-1" vertex="1">
          <mxGeometry x="315" y="10" width="250" height="170" as="geometry" />
        </mxCell>
        <mxCell id="jy5e4RI17ieAFypie_pl-3" value="&lt;div&gt;&lt;b&gt;&lt;font style=&quot;font-size: 14px;&quot;&gt;&lt;br&gt;&lt;/font&gt;&lt;/b&gt;&lt;/div&gt;&lt;b&gt;&lt;font size=&quot;3&quot;&gt;Interact with Notebook App&lt;/font&gt;&lt;/b&gt;" style="html=1;strokeColor=none;fillColor=none;align=center;verticalAlign=middle;rotatable=0;whiteSpace=wrap;" parent="jy5e4RI17ieAFypie_pl-2" vertex="1">
          <mxGeometry y="13" width="246.99999999999994" height="42.5" as="geometry" />
        </mxCell>
        <mxCell id="jy5e4RI17ieAFypie_pl-4" value="" style="line;strokeWidth=1;fillColor=none;rotatable=0;labelPosition=right;points=[];portConstraint=eastwest;dashed=0;resizeWidth=1;" parent="jy5e4RI17ieAFypie_pl-2" vertex="1">
          <mxGeometry x="10" y="50" width="230" height="14.17" as="geometry" />
        </mxCell>
        <mxCell id="jy5e4RI17ieAFypie_pl-5" value="extension points" style="text;html=1;align=center;verticalAlign=middle;rotatable=0;fillColor=none;strokeColor=none;whiteSpace=wrap;" parent="jy5e4RI17ieAFypie_pl-2" vertex="1">
          <mxGeometry y="60" width="247" height="13.33" as="geometry" />
        </mxCell>
        <mxCell id="jy5e4RI17ieAFypie_pl-6" value="Save to File" style="text;html=1;align=left;verticalAlign=middle;rotatable=0;spacingLeft=25;fillColor=none;strokeColor=none;whiteSpace=wrap;" parent="jy5e4RI17ieAFypie_pl-2" vertex="1">
          <mxGeometry y="88.33" width="247" height="20" as="geometry" />
        </mxCell>
        <mxCell id="jy5e4RI17ieAFypie_pl-9" value="Text Editing Features" style="text;html=1;align=left;verticalAlign=middle;rotatable=0;spacingLeft=25;fillColor=none;strokeColor=none;whiteSpace=wrap;" parent="jy5e4RI17ieAFypie_pl-2" vertex="1">
          <mxGeometry y="72.33" width="247" height="20" as="geometry" />
        </mxCell>
        <mxCell id="UT-auVsLcQoroERWogPN-7" value="Export File" style="text;html=1;align=left;verticalAlign=middle;rotatable=0;spacingLeft=25;fillColor=none;strokeColor=none;whiteSpace=wrap;" vertex="1" parent="jy5e4RI17ieAFypie_pl-2">
          <mxGeometry x="1.5" y="105.32999999999998" width="247" height="20" as="geometry" />
        </mxCell>
        <mxCell id="UT-auVsLcQoroERWogPN-8" value="Import File" style="text;html=1;align=left;verticalAlign=middle;rotatable=0;spacingLeft=25;fillColor=none;strokeColor=none;whiteSpace=wrap;" vertex="1" parent="jy5e4RI17ieAFypie_pl-2">
          <mxGeometry y="125.32999999999998" width="247" height="20" as="geometry" />
        </mxCell>
        <mxCell id="UT-auVsLcQoroERWogPN-3" value="&lt;b&gt;UndoRedo&lt;/b&gt;" style="ellipse;whiteSpace=wrap;html=1;" vertex="1" parent="Rg7UJvtkrew1N0ZOOflh-1">
          <mxGeometry x="480" y="460" width="140" height="70" as="geometry" />
        </mxCell>
        <mxCell id="UT-auVsLcQoroERWogPN-4" value="&lt;b&gt;Save to File&lt;/b&gt;" style="ellipse;whiteSpace=wrap;html=1;" vertex="1" parent="Rg7UJvtkrew1N0ZOOflh-1">
          <mxGeometry x="260" y="460" width="140" height="70" as="geometry" />
        </mxCell>
        <mxCell id="UT-auVsLcQoroERWogPN-5" value="&lt;b&gt;Export File&lt;/b&gt;" style="ellipse;whiteSpace=wrap;html=1;" vertex="1" parent="Rg7UJvtkrew1N0ZOOflh-1">
          <mxGeometry x="130" y="330" width="140" height="70" as="geometry" />
        </mxCell>
        <mxCell id="UT-auVsLcQoroERWogPN-6" value="&lt;b&gt;Import File&lt;/b&gt;" style="ellipse;whiteSpace=wrap;html=1;" vertex="1" parent="Rg7UJvtkrew1N0ZOOflh-1">
          <mxGeometry x="30" y="190" width="140" height="70" as="geometry" />
        </mxCell>
        <mxCell id="UT-auVsLcQoroERWogPN-2" value="&lt;b&gt;Text Editing Features&lt;/b&gt;" style="ellipse;whiteSpace=wrap;html=1;" vertex="1" parent="Rg7UJvtkrew1N0ZOOflh-1">
          <mxGeometry x="600" y="330" width="140" height="70" as="geometry" />
        </mxCell>
        <mxCell id="UT-auVsLcQoroERWogPN-1" value="&lt;b&gt;Basic Interactions&lt;/b&gt;" style="ellipse;whiteSpace=wrap;html=1;" vertex="1" parent="Rg7UJvtkrew1N0ZOOflh-1">
          <mxGeometry x="730" y="180" width="140" height="70" as="geometry" />
        </mxCell>
        <mxCell id="UT-auVsLcQoroERWogPN-11" value="&amp;lt;&amp;lt;extend&amp;gt;&amp;gt;" style="html=1;verticalAlign=bottom;labelBackgroundColor=none;endArrow=open;endFill=0;dashed=1;rounded=0;entryX=0;entryY=0;entryDx=0;entryDy=0;" edge="1" parent="Rg7UJvtkrew1N0ZOOflh-1" source="UT-auVsLcQoroERWogPN-6" target="jy5e4RI17ieAFypie_pl-9">
          <mxGeometry width="160" relative="1" as="geometry">
            <mxPoint x="330" y="340" as="sourcePoint" />
            <mxPoint x="490" y="340" as="targetPoint" />
          </mxGeometry>
        </mxCell>
        <mxCell id="UT-auVsLcQoroERWogPN-12" value="&amp;lt;&amp;lt;extend&amp;gt;&amp;gt;" style="html=1;verticalAlign=bottom;labelBackgroundColor=none;endArrow=open;endFill=0;dashed=1;rounded=0;entryX=0.151;entryY=0.869;entryDx=0;entryDy=0;entryPerimeter=0;" edge="1" parent="Rg7UJvtkrew1N0ZOOflh-1" source="UT-auVsLcQoroERWogPN-5" target="jy5e4RI17ieAFypie_pl-2">
          <mxGeometry width="160" relative="1" as="geometry">
            <mxPoint x="330" y="250" as="sourcePoint" />
            <mxPoint x="490" y="250" as="targetPoint" />
          </mxGeometry>
        </mxCell>
        <mxCell id="UT-auVsLcQoroERWogPN-13" value="&amp;lt;&amp;lt;extend&amp;gt;&amp;gt;" style="html=1;verticalAlign=bottom;labelBackgroundColor=none;endArrow=open;endFill=0;dashed=1;rounded=0;entryX=0.5;entryY=1;entryDx=0;entryDy=0;" edge="1" parent="Rg7UJvtkrew1N0ZOOflh-1" source="UT-auVsLcQoroERWogPN-4" target="jy5e4RI17ieAFypie_pl-2">
          <mxGeometry width="160" relative="1" as="geometry">
            <mxPoint x="380" y="300" as="sourcePoint" />
            <mxPoint x="540" y="300" as="targetPoint" />
          </mxGeometry>
        </mxCell>
        <mxCell id="UT-auVsLcQoroERWogPN-14" value="&amp;lt;&amp;lt;include&amp;gt;&amp;gt;" style="html=1;verticalAlign=bottom;labelBackgroundColor=none;endArrow=open;endFill=0;dashed=1;rounded=0;exitX=0.5;exitY=1;exitDx=0;exitDy=0;" edge="1" parent="Rg7UJvtkrew1N0ZOOflh-1" source="jy5e4RI17ieAFypie_pl-2" target="UT-auVsLcQoroERWogPN-3">
          <mxGeometry width="160" relative="1" as="geometry">
            <mxPoint x="430" y="300" as="sourcePoint" />
            <mxPoint x="590" y="300" as="targetPoint" />
          </mxGeometry>
        </mxCell>
        <mxCell id="UT-auVsLcQoroERWogPN-15" value="&amp;lt;&amp;lt;extend&amp;gt;&amp;gt;" style="html=1;verticalAlign=bottom;labelBackgroundColor=none;endArrow=open;endFill=0;dashed=1;rounded=0;entryX=0.864;entryY=0.849;entryDx=0;entryDy=0;entryPerimeter=0;" edge="1" parent="Rg7UJvtkrew1N0ZOOflh-1" source="UT-auVsLcQoroERWogPN-2" target="jy5e4RI17ieAFypie_pl-2">
          <mxGeometry width="160" relative="1" as="geometry">
            <mxPoint x="460" y="300" as="sourcePoint" />
            <mxPoint x="620" y="300" as="targetPoint" />
          </mxGeometry>
        </mxCell>
        <mxCell id="UT-auVsLcQoroERWogPN-16" value="&amp;lt;&amp;lt;deploy&amp;gt;&amp;gt;" style="html=1;verticalAlign=bottom;labelBackgroundColor=none;endArrow=open;endFill=0;dashed=1;rounded=0;exitX=1;exitY=0;exitDx=0;exitDy=0;" edge="1" parent="Rg7UJvtkrew1N0ZOOflh-1" source="jy5e4RI17ieAFypie_pl-9" target="UT-auVsLcQoroERWogPN-1">
          <mxGeometry width="160" relative="1" as="geometry">
            <mxPoint x="460" y="300" as="sourcePoint" />
            <mxPoint x="620" y="300" as="targetPoint" />
          </mxGeometry>
        </mxCell>
        <mxCell id="UT-auVsLcQoroERWogPN-18" style="edgeStyle=orthogonalEdgeStyle;rounded=0;orthogonalLoop=1;jettySize=auto;html=1;exitX=0.5;exitY=0;exitDx=0;exitDy=0;exitPerimeter=0;entryX=0;entryY=0.5;entryDx=0;entryDy=0;" edge="1" parent="1" source="UT-auVsLcQoroERWogPN-9" target="UT-auVsLcQoroERWogPN-6">
          <mxGeometry relative="1" as="geometry" />
        </mxCell>
        <mxCell id="UT-auVsLcQoroERWogPN-19" style="edgeStyle=orthogonalEdgeStyle;rounded=0;orthogonalLoop=1;jettySize=auto;html=1;exitX=1;exitY=0.3333333333333333;exitDx=0;exitDy=0;exitPerimeter=0;" edge="1" parent="1" source="UT-auVsLcQoroERWogPN-9" target="UT-auVsLcQoroERWogPN-5">
          <mxGeometry relative="1" as="geometry" />
        </mxCell>
        <mxCell id="UT-auVsLcQoroERWogPN-20" style="edgeStyle=orthogonalEdgeStyle;rounded=0;orthogonalLoop=1;jettySize=auto;html=1;exitX=1;exitY=1;exitDx=0;exitDy=0;exitPerimeter=0;entryX=0;entryY=0.5;entryDx=0;entryDy=0;" edge="1" parent="1" source="UT-auVsLcQoroERWogPN-9" target="UT-auVsLcQoroERWogPN-4">
          <mxGeometry relative="1" as="geometry" />
        </mxCell>
        <mxCell id="UT-auVsLcQoroERWogPN-9" value="File" style="shape=umlActor;verticalLabelPosition=bottom;verticalAlign=top;html=1;" vertex="1" parent="1">
          <mxGeometry x="160" y="585" width="30" height="60" as="geometry" />
        </mxCell>
        <mxCell id="UT-auVsLcQoroERWogPN-21" style="edgeStyle=orthogonalEdgeStyle;rounded=0;orthogonalLoop=1;jettySize=auto;html=1;exitX=0;exitY=1;exitDx=0;exitDy=0;exitPerimeter=0;entryX=0.5;entryY=1;entryDx=0;entryDy=0;" edge="1" parent="1" source="UT-auVsLcQoroERWogPN-10" target="UT-auVsLcQoroERWogPN-6">
          <mxGeometry relative="1" as="geometry" />
        </mxCell>
        <mxCell id="UT-auVsLcQoroERWogPN-22" style="edgeStyle=orthogonalEdgeStyle;rounded=0;orthogonalLoop=1;jettySize=auto;html=1;exitX=0;exitY=0.3333333333333333;exitDx=0;exitDy=0;exitPerimeter=0;entryX=0.5;entryY=1;entryDx=0;entryDy=0;" edge="1" parent="1" source="UT-auVsLcQoroERWogPN-10" target="UT-auVsLcQoroERWogPN-5">
          <mxGeometry relative="1" as="geometry" />
        </mxCell>
        <mxCell id="UT-auVsLcQoroERWogPN-23" style="edgeStyle=orthogonalEdgeStyle;rounded=0;orthogonalLoop=1;jettySize=auto;html=1;exitX=0.25;exitY=0.1;exitDx=0;exitDy=0;exitPerimeter=0;entryX=0.5;entryY=1;entryDx=0;entryDy=0;" edge="1" parent="1" source="UT-auVsLcQoroERWogPN-10" target="UT-auVsLcQoroERWogPN-4">
          <mxGeometry relative="1" as="geometry" />
        </mxCell>
        <mxCell id="UT-auVsLcQoroERWogPN-24" style="edgeStyle=orthogonalEdgeStyle;rounded=0;orthogonalLoop=1;jettySize=auto;html=1;exitX=0.75;exitY=0.1;exitDx=0;exitDy=0;exitPerimeter=0;entryX=0.5;entryY=1;entryDx=0;entryDy=0;" edge="1" parent="1" source="UT-auVsLcQoroERWogPN-10" target="UT-auVsLcQoroERWogPN-3">
          <mxGeometry relative="1" as="geometry" />
        </mxCell>
        <mxCell id="UT-auVsLcQoroERWogPN-25" style="edgeStyle=orthogonalEdgeStyle;rounded=0;orthogonalLoop=1;jettySize=auto;html=1;exitX=1;exitY=0.3333333333333333;exitDx=0;exitDy=0;exitPerimeter=0;entryX=0.5;entryY=1;entryDx=0;entryDy=0;" edge="1" parent="1" source="UT-auVsLcQoroERWogPN-10" target="UT-auVsLcQoroERWogPN-2">
          <mxGeometry relative="1" as="geometry" />
        </mxCell>
        <mxCell id="UT-auVsLcQoroERWogPN-26" style="edgeStyle=orthogonalEdgeStyle;rounded=0;orthogonalLoop=1;jettySize=auto;html=1;exitX=1;exitY=1;exitDx=0;exitDy=0;exitPerimeter=0;entryX=0.5;entryY=1;entryDx=0;entryDy=0;" edge="1" parent="1" source="UT-auVsLcQoroERWogPN-10" target="UT-auVsLcQoroERWogPN-1">
          <mxGeometry relative="1" as="geometry" />
        </mxCell>
        <mxCell id="UT-auVsLcQoroERWogPN-10" value="User" style="shape=umlActor;verticalLabelPosition=bottom;verticalAlign=top;html=1;" vertex="1" parent="1">
          <mxGeometry x="684" y="930" width="30" height="60" as="geometry" />
        </mxCell>
      </root>
    </mxGraphModel>
  </diagram>
</mxfile>
